<svg width="48" height="32" viewBox="0 0 48 32" fill="none" xmlns="http://www.w3.org/2000/svg">
  <rect width="48" height="32" rx="4" fill="#2E77BC"/>
  <path d="M24.3 17.8H27.1L25.7 14.2L24.3 17.8Z" fill="white"/>
  <path fill-rule="evenodd" clip-rule="evenodd" d="M9 19.8H10.5L11.4 17.8H14.2L15.1 19.8H19.1V17.4L19.8 19.8H22.2L22.9 17.3V19.8H29.2L30.1 17.8H32.9L33.8 19.8H37V12.2H33.9L33 14.2L32.1 12.2H27.8L27 14.1V12.2H22.8L22.1 14L21.4 12.2H16.8V14L16.2 12.2H12.7L10.5 17.2L9 19.8ZM17.3 18.4H15.8L13.7 13.6H15.6L16.8 16.6L18 13.6H19.9L17.8 18.4H17.3ZM20.4 18.4H22.1V13.6H20.4V18.4ZM29.7 18.4H31.8L29.7 13.6H27.8L25.7 18.4H27.8L28.2 17.4H30.5L30.9 18.4H29.7ZM33.5 18.4H35.2V13.6H33.5V18.4Z" fill="white"/>
</svg> 