<svg width="48" height="32" viewBox="0 0 48 32" fill="none" xmlns="http://www.w3.org/2000/svg">
  <rect width="48" height="32" rx="4" fill="white"/>
  <path d="M44 16.5C44 20.6 40.6 24 36.5 24H4V8H36.5C40.6 8 44 11.4 44 15.5V16.5Z" fill="#F27712"/>
  <path d="M7.3 14.7H6V18.5H7.3C8.3 18.5 9 18.1 9.5 17.4C9.8 16.9 9.9 16.4 9.9 15.8C9.9 14.4 8.8 13.5 7.3 13.5V14.7ZM8.1 16.9C7.8 17.3 7.4 17.5 6.8 17.5H7V14.5H6.8C7.4 14.5 7.8 14.7 8.1 15.1C8.3 15.4 8.4 15.8 8.4 16.2C8.4 16.6 8.3 16.8 8.1 16.9Z" fill="white"/>
  <path d="M10.3 18.5H11.6V13.5H10.3V18.5Z" fill="white"/>
  <path d="M14.7 15.1C14.2 14.8 14 14.7 13.6 14.7V13.5C14.1 13.5 14.5 13.7 15 14L15.5 13C14.8 12.6 14.1 12.4 13.3 12.4C11.8 12.4 10.6 13.6 10.6 15.1C10.6 16.6 11.8 17.8 13.3 17.8C14.1 17.8 14.8 17.6 15.5 17.2L15 16.2C14.4 16.5 14 16.7 13.6 16.7C12.8 16.7 12.1 16 12.1 15.2C12.1 14.4 12.8 13.7 13.6 13.7C13.9 13.5 14.3 13.7 14.7 14V15.1Z" fill="white"/>
  <path d="M15.8 16C15.8 17.3 16.8 18.3 18.1 18.3C18.7 18.3 19.2 18.1 19.8 17.7L19.3 16.8C18.9 17.1 18.5 17.2 18.1 17.2C17.3 17.2 16.6 16.5 16.6 15.7C16.6 14.9 17.3 14.2 18.1 14.2C18.5 14.2 18.9 14.4 19.3 14.6L19.8 13.7C19.2 13.3 18.7 13.1 18.1 13.1C16.8 13.1 15.8 14.4 15.8 16Z" fill="white"/>
  <path d="M25.3 15.8C25.3 14.5 24.3 13.5 23 13.5H21.2V18.3H22.5V16.5H22.3L23.8 18.3H25.5L23.8 16.4C24.7 16.2 25.3 15.5 25.3 15.8ZM22.5 15.6V14.4H23C23.6 14.4 24 14.8 24 15.2C24 15.6 23.6 16 23 16H22.5V15.6Z" fill="white"/>
  <path d="M25.8 16C25.8 17.3 26.8 18.3 28.1 18.3C28.7 18.3 29.2 18.1 29.8 17.7L29.3 16.8C28.9 17.1 28.5 17.2 28.1 17.2C27.3 17.2 26.6 16.5 26.6 15.7C26.6 14.9 27.3 14.2 28.1 14.2C28.5 14.2 28.9 14.4 29.3 14.6L29.8 13.7C29.2 13.3 28.7 13.1 28.1 13.1C26.8 13.1 25.8 14.4 25.8 16Z" fill="white"/>
  <path d="M33.1 16.6L31.4 13.5H30L32.7 18.6H33.4L36.2 13.5H34.8L33.1 16.6Z" fill="white"/>
</svg> 