<svg width="48" height="32" viewBox="0 0 48 32" fill="none" xmlns="http://www.w3.org/2000/svg">
  <rect width="48" height="32" rx="4" fill="white"/>
  <path d="M12 19.2C12 21.3 13.7 23 15.8 23H20V15.3C20 13.2 18.3 11.5 16.2 11.5H12V19.2Z" fill="#0E4C96"/>
  <path d="M24 19.2C24 21.3 25.7 23 27.8 23H32V15.3C32 13.2 30.3 11.5 28.2 11.5H24V19.2Z" fill="#0E4C96"/>
  <path d="M36 19.2C36 21.3 37.7 23 39.8 23H44V15.3C44 13.2 42.3 11.5 40.2 11.5H36V19.2Z" fill="#0E4C96"/>
  <path d="M16.2 12.5C17.8 12.5 19 13.7 19 15.3V17.5H15V15.3C15 13.7 16.2 12.5 16.2 12.5Z" fill="white"/>
  <path d="M28.2 12.5C29.8 12.5 31 13.7 31 15.3V17.5H27V15.3C27 13.7 28.2 12.5 28.2 12.5Z" fill="white"/>
  <path d="M40.2 12.5C41.8 12.5 43 13.7 43 15.3V17.5H39V15.3C39 13.7 40.2 12.5 40.2 12.5Z" fill="white"/>
</svg> 