<svg width="48" height="32" viewBox="0 0 48 32" fill="none" xmlns="http://www.w3.org/2000/svg">
  <rect width="48" height="32" rx="4" fill="#2566AF"/>
  <path d="M18.1928 21.7674H15.1325L17.0361 10.2326H20.0964L18.1928 21.7674Z" fill="white"/>
  <path d="M28.1476 10.5116C27.5783 10.2791 26.6386 10 25.4819 10C22.6024 10 20.5783 11.4884 20.5663 13.6047C20.5422 15.186 22.0241 16.0698 23.1446 16.5814C24.2892 17.1047 24.6747 17.4419 24.6747 17.9069C24.6627 18.6279 23.7711 18.9535 22.9398 18.9535C21.7831 18.9535 21.1657 18.7674 20.2139 18.3837L19.8163 18.2093L19.3946 20.814C20.0843 21.1163 21.4217 21.3837 22.8072 21.3953C25.8554 21.3953 27.8434 19.9302 27.8675 17.686C27.8795 16.4186 27.0482 15.4535 25.3133 14.686C24.2651 14.1744 23.6235 13.8372 23.6235 13.3256C23.6355 12.8605 24.1536 12.3837 25.3253 12.3837C26.2892 12.3605 27.0121 12.593 27.5663 12.8256L27.8434 12.9535L28.2651 10.4419" fill="white"/>
  <path d="M32.5783 17.5116C32.8434 16.814 33.8193 14.0465 33.8193 14.0465C33.8072 14.0698 34.0843 13.3488 34.241 12.907L34.4819 13.9535C34.4819 13.9535 35.0843 16.9302 35.2169 17.5116H32.5783ZM36.7349 10.2326H34.4096C33.6506 10.2326 33.0723 10.4419 32.7349 11.2093L28.241 21.7674H31.3494L31.9759 20.0698H35.8916L36.2651 21.7674H39L36.7349 10.2326Z" fill="white"/>
  <path d="M13.8313 10.2326L10.9157 18.0116L10.5663 16.4651C9.92771 14.5581 8.15663 12.5116 6.18072 11.4419L8.89157 21.7558H12.0241L16.9398 10.2326H13.8313Z" fill="white"/>
  <path d="M8.26506 10.2326H3.68675L3.63855 10.4651C7.22892 11.3488 9.56627 13.5814 10.5663 16.4651L9.54217 11.2326C9.34939 10.4767 8.86747 10.2558 8.26506 10.2326Z" fill="#FAA61A"/>
</svg> 